<?xml version="1.0" encoding="iso-8859-1"?>
<!-- Generator: Adobe Illustrator 16.0.0, SVG Export Plug-In . SVG Version: 6.00 Build 0)  -->
<!DOCTYPE svg PUBLIC "-//W3C//DTD SVG 1.1//EN" "http://www.w3.org/Graphics/SVG/1.1/DTD/svg11.dtd">
<svg version="1.1" id="Capa_1" xmlns="http://www.w3.org/2000/svg" xmlns:xlink="http://www.w3.org/1999/xlink" x="0px" y="0px"
	 width="80.288px" height="80.288px" viewBox="0 0 80.288 80.288" style="enable-background:new 0 0 80.288 80.288;"
	 xml:space="preserve">
<g>
	<g id="_x32__x5F_6">
		<g>
			<path d="M69.229,22.412h2.022l-4.692,4.715c-1.035,1.039-1.035,2.724,0,3.761c0.517,0.521,1.194,0.78,1.873,0.78
				c0.676,0,1.354-0.26,1.87-0.78l9.212-9.256c1.032-1.038,1.032-2.723,0-3.761l-9.212-9.257c-1.034-1.039-2.71-1.039-3.743,0
				c-1.035,1.039-1.035,2.724,0,3.761l4.692,4.715h-2.022c-11.483,0-18.47,9.227-25.865,18.997
				c-8.111,10.712-16.5,22.394-31.481,22.394H2.646C1.184,58.48,0,59.67,0,61.141s1.185,2.66,2.646,2.66h9.234
				c17.606,0,27.636-13.85,35.697-24.494C54.725,29.867,60.367,22.412,69.229,22.412z M79.514,58.655L70.302,49.4
				c-1.034-1.04-2.71-1.04-3.743,0c-1.035,1.038-1.035,2.723,0,3.761l4.69,4.715h-2.021c-8.039,0-13.437-6.146-19.705-14.337
				l-3.467,4.195c6.473,8.347,13.086,15.463,23.172,15.463h2.021l-4.69,4.715c-1.035,1.039-1.035,2.722,0,3.761
				c0.517,0.521,1.194,0.78,1.873,0.78c0.676,0,1.354-0.26,1.87-0.78l9.212-9.255c0.495-0.5,0.774-1.176,0.774-1.881
				C80.288,59.831,80.009,59.154,79.514,58.655z M2.646,21.753h9.234c11.057,0,18.518,6.697,24.932,14.164l3.579-3.93
				c-6.941-7.904-15.722-15.554-28.51-15.554H2.646C1.185,16.433,0,17.625,0,19.094C0,20.563,1.185,21.753,2.646,21.753z"/>
		</g>
	</g>
</g>
<g>
</g>
<g>
</g>
<g>
</g>
<g>
</g>
<g>
</g>
<g>
</g>
<g>
</g>
<g>
</g>
<g>
</g>
<g>
</g>
<g>
</g>
<g>
</g>
<g>
</g>
<g>
</g>
<g>
</g>
</svg>
