<?xml version="1.0" encoding="iso-8859-1"?>
<!-- Generator: Adobe Illustrator 16.0.0, SVG Export Plug-In . SVG Version: 6.00 Build 0)  -->
<!DOCTYPE svg PUBLIC "-//W3C//DTD SVG 1.1//EN" "http://www.w3.org/Graphics/SVG/1.1/DTD/svg11.dtd">
<svg version="1.1" id="Capa_1" xmlns="http://www.w3.org/2000/svg" xmlns:xlink="http://www.w3.org/1999/xlink" x="0px" y="0px"
	 width="282.611px" height="282.612px" viewBox="0 0 282.611 282.612" style="enable-background:new 0 0 282.611 282.612;"
	 xml:space="preserve">
<g>
	<g id="_x33_55._Volume_Indicator">
		<g>
			<path d="M31.4,180.553H15.701C7.033,180.553,0,187.583,0,196.254v31.402c0,8.668,7.033,15.701,15.701,15.701H31.4
				c8.668,0,15.701-7.033,15.701-15.701v-31.402C47.101,187.583,40.068,180.553,31.4,180.553z M109.905,133.45H94.204
				c-8.668,0-15.701,7.035-15.701,15.701v78.506c0,8.668,7.033,15.701,15.701,15.701h15.701c8.666,0,15.699-7.033,15.699-15.701
				v-78.506C125.604,140.485,118.571,133.45,109.905,133.45z M188.409,86.349h-15.701c-8.664,0-15.701,7.033-15.701,15.701v125.607
				c0,8.668,7.037,15.701,15.701,15.701h15.701c8.664,0,15.701-7.033,15.701-15.701V102.05
				C204.11,93.382,197.073,86.349,188.409,86.349z M266.91,39.253h-15.701c-8.66,0-15.697,7.027-15.697,15.701v172.702
				c0,8.668,7.037,15.701,15.697,15.701h15.701c8.664,0,15.701-7.033,15.701-15.701V54.955
				C282.611,46.28,275.574,39.253,266.91,39.253z"/>
		</g>
	</g>
</g>
<g>
</g>
<g>
</g>
<g>
</g>
<g>
</g>
<g>
</g>
<g>
</g>
<g>
</g>
<g>
</g>
<g>
</g>
<g>
</g>
<g>
</g>
<g>
</g>
<g>
</g>
<g>
</g>
<g>
</g>
</svg>
